<svg xmlns="http://www.w3.org/2000/svg" width="560" height="380" viewBox="0 0 560 380" font-family="'Ubuntu Sans','DejaVu Sans',Helvetica,Arial,sans-serif"><rect width="560" height="380" rx="16" fill="#18181F" stroke="#2E2E38"/><text x="26" y="44" fill="#F4F2EC" font-size="25" text-anchor="start" font-weight="700">Qwen decode: 46.1 tok/s at 256K</text><text x="26" y="70" fill="#9A98A3" font-size="16" text-anchor="start" font-weight="400">Higher is better.</text><line x1="64" x2="532" y1="316.0" y2="316.0" stroke="#2E2E38"/><text x="54" y="321.0" fill="#9A98A3" font-size="15" text-anchor="end" font-weight="400">0</text><line x1="64" x2="532" y1="269.3333333333333" y2="269.3333333333333" stroke="#2E2E38"/><text x="54" y="274.3333333333333" fill="#9A98A3" font-size="15" text-anchor="end" font-weight="400">20</text><line x1="64" x2="532" y1="222.66666666666669" y2="222.66666666666669" stroke="#2E2E38"/><text x="54" y="227.66666666666669" fill="#9A98A3" font-size="15" text-anchor="end" font-weight="400">40</text><line x1="64" x2="532" y1="176.0" y2="176.0" stroke="#2E2E38"/><text x="54" y="181.0" fill="#9A98A3" font-size="15" text-anchor="end" font-weight="400">60</text><text x="92.0" y="344" fill="#9A98A3" font-size="16" text-anchor="middle" font-weight="400">8K</text><text x="174.4" y="344" fill="#9A98A3" font-size="16" text-anchor="middle" font-weight="400">16K</text><text x="256.8" y="344" fill="#9A98A3" font-size="16" text-anchor="middle" font-weight="400">32K</text><text x="339.2" y="344" fill="#9A98A3" font-size="16" text-anchor="middle" font-weight="400">64K</text><text x="421.6" y="344" fill="#9A98A3" font-size="16" text-anchor="middle" font-weight="400">128K</text><text x="504.0" y="344" fill="#9A98A3" font-size="16" text-anchor="middle" font-weight="400">256K</text><rect x="26" y="86" width="14" height="14" rx="3" fill="#9C8CFF"/><text x="48" y="98" fill="#F4F2EC" font-size="16" text-anchor="start" font-weight="400">Qwen3.8-Flash-Next</text><polyline fill="none" stroke="#9C8CFF" stroke-width="4" stroke-linejoin="round" stroke-linecap="round" points="92.0,207.7 256.8,209.8 339.2,210.3 421.6,213.3 504.0,208.4"/><circle cx="92.0" cy="207.7" r="5.5" fill="#9C8CFF"/><text x="92.0" y="195.73333333333335" fill="#9C8CFF" font-size="16" text-anchor="middle" font-weight="700">46.4</text><circle cx="256.8" cy="209.8" r="5.5" fill="#9C8CFF"/><circle cx="339.2" cy="210.3" r="5.5" fill="#9C8CFF"/><circle cx="421.6" cy="213.3" r="5.5" fill="#9C8CFF"/><circle cx="504.0" cy="208.4" r="5.5" fill="#9C8CFF"/><text x="504.0" y="196.43333333333334" fill="#9C8CFF" font-size="16" text-anchor="middle" font-weight="700">46.1</text><rect x="26" y="108" width="14" height="14" rx="3" fill="#F0B04A"/><text x="48" y="120" fill="#F4F2EC" font-size="16" text-anchor="start" font-weight="400">GLM-5.3-Flash</text><polyline fill="none" stroke="#F0B04A" stroke-width="4" stroke-linejoin="round" stroke-linecap="round" points="92.0,243.4 256.8,244.4 339.2,246.0 421.6,241.1 504.0,240.6"/><circle cx="92.0" cy="243.4" r="5.5" fill="#F0B04A"/><text x="92.0" y="231.43333333333334" fill="#F0B04A" font-size="16" text-anchor="middle" font-weight="700">31.1</text><circle cx="256.8" cy="244.4" r="5.5" fill="#F0B04A"/><circle cx="339.2" cy="246.0" r="5.5" fill="#F0B04A"/><circle cx="421.6" cy="241.1" r="5.5" fill="#F0B04A"/><circle cx="504.0" cy="240.6" r="5.5" fill="#F0B04A"/><text x="504.0" y="228.63333333333333" fill="#F0B04A" font-size="16" text-anchor="middle" font-weight="700">32.3</text><rect x="26" y="130" width="14" height="14" rx="3" fill="#3FD0B0"/><text x="48" y="142" fill="#F4F2EC" font-size="16" text-anchor="start" font-weight="400">MiMo-V2.6-Flash</text><polyline fill="none" stroke="#3FD0B0" stroke-width="4" stroke-linejoin="round" stroke-linecap="round" points="92.0,246.5 256.8,261.4 339.2,275.4 421.6,285.9"/><circle cx="92.0" cy="246.5" r="5.5" fill="#3FD0B0"/><text x="92.0" y="272.4666666666667" fill="#3FD0B0" font-size="16" text-anchor="middle" font-weight="700">29.8</text><circle cx="256.8" cy="261.4" r="5.5" fill="#3FD0B0"/><circle cx="339.2" cy="275.4" r="5.5" fill="#3FD0B0"/><circle cx="421.6" cy="285.9" r="5.5" fill="#3FD0B0"/><text x="421.6" y="311.9" fill="#3FD0B0" font-size="16" text-anchor="middle" font-weight="700">12.9</text><text x="26" y="362" fill="#9A98A3" font-size="14" text-anchor="start" font-weight="400">Speculative decode against context; same machine, 128 GB.</text></svg>